<?xml version="1.0" standalone="no"?>
<!DOCTYPE svg PUBLIC "-//W3C//DTD SVG 20010904//EN"
 "http://www.w3.org/TR/2001/REC-SVG-20010904/DTD/svg10.dtd">
<svg version="1.0" xmlns="http://www.w3.org/2000/svg"
 width="1024.000000pt" height="1024.000000pt" viewBox="0 0 1024.000000 1024.000000"
 preserveAspectRatio="xMidYMid meet">
<metadata>
Created by potrace 1.11, written by Peter Selinger 2001-2013
</metadata>
<g transform="translate(0.000000,1024.000000) scale(0.100000,-0.100000)"
fill="#000000" stroke="none">
<path d="M1525 8506 c-213 -53 -357 -236 -358 -456 -1 -167 72 -304 213 -399
78 -54 140 -73 247 -77 141 -6 232 29 341 129 231 213 180 605 -98 759 -98 54
-235 71 -345 44z"/>
<path d="M6477 8354 c-1 -1 -56 -4 -122 -8 -136 -7 -209 -13 -245 -21 -14 -2
-45 -7 -70 -10 -228 -30 -560 -124 -780 -220 -244 -107 -534 -292 -760 -484
-82 -69 -297 -285 -374 -374 -275 -319 -523 -749 -674 -1167 -57 -159 -127
-423 -146 -555 -4 -22 -11 -65 -16 -95 -36 -208 -44 -661 -15 -870 13 -93 17
-118 21 -155 35 -262 158 -647 290 -905 340 -668 842 -1157 1489 -1452 310
-142 756 -262 1090 -293 33 -3 69 -7 80 -10 125 -27 844 -27 1060 -1 17 2 59
7 95 11 36 4 74 9 85 11 10 2 37 6 60 9 386 54 841 202 1285 421 l170 83 0 53
c0 29 2 537 4 1128 4 1048 5 1120 27 1226 5 28 12 64 15 80 26 153 129 281
272 339 76 31 162 45 292 49 l104 2 1 87 c0 70 -3 87 -15 88 -20 1 -2388 1
-2421 0 l-27 -1 2 -87 1 -88 70 -2 c92 -2 224 -12 255 -18 13 -2 42 -7 64 -11
107 -15 240 -92 307 -176 75 -94 106 -192 124 -383 4 -38 9 -544 11 -1123 l3
-1052 -37 -19 c-359 -187 -694 -292 -1021 -319 -114 -9 -431 -9 -503 1 -295
39 -592 142 -863 300 -389 227 -699 575 -938 1052 -54 108 -64 130 -107 230
-27 61 -100 263 -106 289 -2 11 -12 47 -23 80 -51 153 -111 465 -136 701 -19
179 -25 589 -11 755 48 570 180 1027 421 1458 138 246 383 541 560 672 33 25
62 47 65 51 15 17 140 94 240 148 123 67 311 139 443 172 105 25 104 25 157
34 25 4 52 9 61 10 22 4 115 16 164 21 178 18 550 6 655 -21 8 -2 36 -6 61 -9
67 -9 281 -69 372 -105 249 -99 454 -236 647 -430 222 -224 383 -489 545 -896
4 -11 22 -60 40 -110 l32 -90 83 -3 82 -3 -7 93 c-3 51 -8 113 -10 138 -2 25
-7 79 -10 120 -3 41 -8 98 -10 125 -3 28 -7 82 -10 120 -3 39 -7 90 -10 115
-2 25 -7 81 -10 125 -4 44 -8 103 -11 130 -2 28 -7 82 -9 120 -3 39 -7 97 -10
130 -3 33 -7 86 -10 118 -3 31 -7 83 -10 115 -2 31 -7 86 -10 122 -3 36 -7 88
-10 115 -2 28 -7 88 -10 135 -3 47 -8 94 -10 105 -2 11 -4 34 -4 51 l-1 31
-87 -1 -88 -1 -3 -45 c-4 -72 -31 -191 -53 -237 -26 -53 -78 -99 -127 -112
-72 -20 -136 -3 -532 139 -63 23 -151 53 -195 67 -44 13 -89 28 -100 33 -27
11 -301 86 -345 94 -117 22 -203 36 -260 41 -36 3 -83 9 -105 12 -38 5 -432
12 -438 7z"/>
<path d="M1511 6147 c-174 -70 -323 -131 -331 -134 -8 -3 -40 -16 -70 -28 -30
-13 -163 -67 -295 -120 -132 -53 -250 -102 -262 -109 l-21 -11 32 -80 c23 -54
38 -79 47 -76 8 2 50 15 94 28 44 13 121 27 170 30 158 10 237 -28 294 -143
44 -90 62 -207 77 -519 7 -142 7 -2327 1 -2400 -14 -139 -23 -197 -43 -258
-36 -110 -112 -205 -198 -247 -57 -27 -181 -49 -304 -54 -52 -2 -97 -8 -101
-14 -5 -8 -6 -127 -2 -152 2 -8 2069 -6 2077 3 11 11 11 157 -1 158 -5 0 -44
2 -84 4 -144 8 -245 27 -318 62 -85 40 -175 155 -202 258 -16 65 -31 186 -36
296 -2 46 -4 883 -4 1859 l-1 1775 -101 0 -101 0 -317 -128z"/>
</g>
</svg>
